# xmcd
# 
# Track frame offsets:
#     183
#     15783
#     31825
#     95933
#     129818
#     201068
#     215868
#     268888
# 
# Disc length: 3785
# 
# Revision: 2
# Processed by: cddbd v1.5.2PL0 Copyright (c) Steve Scherf et al.
# Submitted via: fre:ac v1.0.31
# 
DISCID=6b0ec708
DTITLE=Elvis Presley - Original Album Classics Disc 1
DYEAR=1968
DGENRE=Rock/Pop
TTITLE0=Trouble - Guitar Man
TTITLE1=Lawdy, Miss Clawdy
TTITLE2=Heartbreak Hotel
TTITLE3=Where Could I Go To But The Lord
TTITLE4=Baby, What You Want Me To Do
TTITLE5=Memories
TTITLE6=Nothingville
TTITLE7=If I Can Dream
EXTD=
EXTT0=
EXTT1=
EXTT2=
EXTT3=
EXTT4=
EXTT5=
EXTT6=
EXTT7=
PLAYORDER=
